<?xml version="1.0" encoding="utf-8"?>
<!-- Generator: Adobe Illustrator 23.0.3, SVG Export Plug-In . SVG Version: 6.00 Build 0)  -->
<svg version="1.1"
	 id="svg7025" xmlns:cc="http://web.resource.org/cc/" xmlns:dc="http://purl.org/dc/elements/1.1/" xmlns:inkscape="http://www.inkscape.org/namespaces/inkscape" xmlns:rdf="http://www.w3.org/1999/02/22-rdf-syntax-ns#" xmlns:sodipodi="http://sodipodi.sourceforge.net/DTD/sodipodi-0.dtd" xmlns:svg="http://www.w3.org/2000/svg"
	 xmlns="http://www.w3.org/2000/svg" xmlns:xlink="http://www.w3.org/1999/xlink" x="0px" y="0px" viewBox="0 0 48 48"
	 style="enable-background:new 0 0 48 48;" xml:space="preserve">
<style type="text/css">
	.st0{fill:url(#path4759_1_);}
	.st1{fill:none;stroke:#676C72;stroke-width:0.75;}
	.st2{fill:none;stroke:#676C72;}
	.st3{fill:none;stroke:url(#path4777_1_);stroke-width:4;}
</style>
<sodipodi:namedview  bordercolor="#666666" borderopacity="1.0" id="base" inkscape:current-layer="layer1" inkscape:cx="24" inkscape:cy="24" inkscape:document-units="px" inkscape:grid-bbox="true" inkscape:pageopacity="0.0" inkscape:pageshadow="2" inkscape:window-height="957" inkscape:window-width="1147" inkscape:window-x="364" inkscape:window-y="27" inkscape:zoom="7" pagecolor="#ffffff" showgrid="true">
	</sodipodi:namedview>
<g id="layer1" inkscape:groupmode="layer" inkscape:label="Layer 1">
	
		<radialGradient id="path4759_1_" cx="-61.9281" cy="-1171.7855" r="15.9079" gradientTransform="matrix(1.0634 0 0 -1.2029 90.9232 -1396.1525)" gradientUnits="userSpaceOnUse">
		<stop  offset="9.550000e-02" style="stop-color:#EAEEF1"/>
		<stop  offset="0.8146" style="stop-color:#A0A8B2"/>
	</radialGradient>
	<path id="path4759" sodipodi:nodetypes="ccsccccccccccc" class="st0" d="M27.9,36.4c5.2-4.2,12.3-4.7,20.1-4.9
		c-8.2-2-11-23.9-21.6-23.9c-2.9,0-4.8,1.3-8,4.9l-5.3-2.3l-3.5,5.7l-6-3.3l-3.2,9.6l7.8,6.2l4.2,8.4l4,7.9l3.6-5.9l4.9,1.5
		L27.9,36.4z"/>
	<path id="path4763" sodipodi:nodetypes="cc" class="st1" d="M35.9,32.7c-9.7-9.3-5.4-23.6-17.4-19.9"/>
	<path id="path4765" sodipodi:nodetypes="cccsc" class="st1" d="M12.4,36.8l3.4-6.5l5.8-1c1.9-2.7,3.8-5.9,7.9-7.3
		c5.4-1.8,7.9,3.2,12,3.8"/>
	<path id="polyline4771" sodipodi:nodetypes="cccc" class="st1" d="M3.1,11.5l5.3,11.3l7.2,7.3l4.4,8.5"/>
	<path id="path4767" sodipodi:nodetypes="ccccsc" class="st1" d="M8.2,28.4l0.1-5.5l5.1-0.4l3.4-2.1c3.5-4.4,4.2-8.2,9.1-9.6
		c2.5-0.7,6-0.5,9.1,3.2"/>
	<path id="polyline4775" sodipodi:nodetypes="cccccccc" class="st2" d="M0.5,22.5l7.8,5.9l4.2,8.4l4,7.9l3.4-5.9l4.8,1.5l3.8-4.1
		c10.9-6.4,13.4-3.4,19.6-4.5"/>
	<path id="path7088" sodipodi:nodetypes="cccc" class="st1" d="M9.6,16.5l3.4,5.7l8.8,6.8l2.6,11"/>
	<path id="path7090" sodipodi:nodetypes="cccc" class="st1" d="M13.2,9.7l3.6,10.6l7.5,4.9l4.1,10.9"/>
	
		<linearGradient id="path4777_1_" gradientUnits="userSpaceOnUse" x1="-2.2519" y1="30.6489" x2="49.1033" y2="30.6489" gradientTransform="matrix(1 0 0 -1 0 50)">
		<stop  offset="6.145251e-02" style="stop-color:#00AC51"/>
		<stop  offset="0.2542" style="stop-color:#FFF215"/>
		<stop  offset="0.6632" style="stop-color:#F46F23"/>
		<stop  offset="0.8827" style="stop-color:#ED1F24"/>
	</linearGradient>
	<path id="path4777" sodipodi:nodetypes="cscccccc" class="st3" d="M48.6,31.2c-10-2.6-10.2-20.6-20.5-23.4c-2.2-0.6-4.6,0-6,1.3
		l-3.8,3.6l-5.2-2.6L9.7,16l-6.1-3.7l-4,10.9"/>
</g>
</svg>
